# xmcd
#
# Track frame offsets: 
#        150
#        21175
#        38284
#        50469
#        72974
#        82587
#        97638
#        105872
#        123793
#        142786
#        162942
#        183672
#
# Disc length: 2732 seconds
#
# Revision: 0
# Processed by: cddbd v1.5.2PL0 Copyright (c) Steve Scherf et al.
# Submitted via: ExactAudioCopy v1.0b4
#
DISCID=7b0aaa0c
DTITLE=Johnny Nicholas and Friends - Too Many Bad Habits - Disc 2
DYEAR=2017
DGENRE=Blues
TTITLE0=Move On Down The Line
TTITLE1=Pump Jockey Blues
TTITLE2=Believe I'll Make A Change
TTITLE3=Prisoner Blues
TTITLE4=Apple Groove Rhumba
TTITLE5=Looks Can Be Deceiving
TTITLE6=That's Alright Mama
TTITLE7=Hootie Blues
TTITLE8=Money Marble And Chalk
TTITLE9=Lonesome Traveler
TTITLE10=Froggy Bottom
TTITLE11=Soon Forgotten
EXTD=
EXTT0=
EXTT1=
EXTT2=
EXTT3=
EXTT4=
EXTT5=
EXTT6=
EXTT7=
EXTT8=
EXTT9=
EXTT10=
EXTT11=
PLAYORDER=
